<?xml version="1.0" encoding="utf-8"?>
<!-- Generator: Adobe Illustrator 20.1.0, SVG Export Plug-In . SVG Version: 6.00 Build 0)  -->
<svg version="1.1" id="Layer_1" xmlns="http://www.w3.org/2000/svg" xmlns:xlink="http://www.w3.org/1999/xlink" x="0px" y="0px"
	 viewBox="0 0 385.6 12.6" style="enable-background:new 0 0 385.6 12.6;" xml:space="preserve">
<path d="M37.8,7.7L53,12.4H35.1L20.5,7.7H37.8z"/>
<path d="M385.6,10v2.4h-40.4V4.7h16.4V10H385.6z"/>
<path d="M16.4,5.9h6.8c5.8,0,8.9-0.6,8.9-1.7c0-1.1-3.1-1.7-8.9-1.7h-6.8V5.9z"/>
<polygon points="297.2,3.3 296.7,3.3 291.6,8.1 302.3,8.1 "/>
<rect x="73.3" width="41.7" height="2.4"/>
<rect x="73.3" y="5" width="39.4" height="2.3"/>
<rect x="73.3" y="10" width="41.7" height="2.4"/>
<rect x="208.9" y="10" width="41.9" height="2.4"/>
<rect x="208.9" y="5" width="39.4" height="2.3"/>
<rect x="208.9" width="41.7" height="2.4"/>
<polygon points="273.6,8.4 268.8,12.6 285.7,12.6 290.1,8.4 "/>
<polygon points="320.3,8.4 303.8,8.4 308.1,12.6 325.1,12.6 "/>
<polyline points="3.4,8.2 3.4,12.4 0,12.4 0,0 3.4,0 "/>
<polygon points="150.1,0 133.2,0 152.3,12.4 169.3,12.4 "/>
<polygon points="180.8,5 188.5,0 171.5,0 163.9,5 "/>
</svg>
